<?xml version="1.0" encoding="UTF-8"?>
<svg version="1.1" xmlns="http://www.w3.org/2000/svg" width="625" height="625">
<path d="M0 0 C1.77059291 0.93347091 3.56138113 1.82830208 5.35205078 2.72265625 C25.87778531 13.07312149 45.65576026 27.0019142 62.42626953 42.73046875 C64.41861301 44.59746612 66.44793199 46.37130211 68.53564453 48.12890625 C77.99920402 56.38269112 86.95506981 65.43921105 94.70751953 75.31640625 C96.08918945 77.06167352 97.51705151 78.77137162 98.98876953 80.44140625 C111.98503759 95.24510231 122.68521807 112.50045736 131.78564453 129.94140625 C132.27871094 130.87412354 132.27871094 130.87412354 132.78173828 131.82568359 C147.30922691 159.44628333 157.04198051 188.49091241 163.20410156 219.06396484 C163.83129557 222.16728498 164.49664347 225.26095781 165.17797852 228.3527832 C166.33946826 234.29925975 167.03659267 240.14368171 167.34423828 246.1953125 C167.38502502 246.97222443 167.42581177 247.74913635 167.46783447 248.54959106 C171.48510248 330.67754959 150.30214806 408.70511803 97.78564453 472.94140625 C97.34736328 473.48410156 96.90908203 474.02679688 96.45751953 474.5859375 C84.17121033 489.72700678 70.26648862 504.06599892 54.78564453 515.94140625 C53.62779729 516.88447232 52.4730743 517.8313818 51.32080078 518.78125 C42.82756815 525.75589131 34.08012477 532.07896071 24.78564453 537.94140625 C24.19879883 538.31330078 23.61195313 538.68519531 23.00732422 539.06835938 C-3.17854401 555.53800695 -31.34853657 567.87233864 -61.21435547 575.94140625 C-62.07125977 576.17553223 -62.92816406 576.4096582 -63.81103516 576.65087891 C-78.72925212 580.65590348 -93.89759773 583.03362504 -109.21435547 584.94140625 C-110.04290039 585.04743164 -110.87144531 585.15345703 -111.72509766 585.26269531 C-137.57373637 588.10085753 -165.61353119 587.27162074 -191.21435547 582.94140625 C-192.92921143 582.65136719 -192.92921143 582.65136719 -194.67871094 582.35546875 C-259.8983924 570.8726937 -317.28308499 539.74243711 -364.08935547 493.31640625 C-364.95753906 492.45764893 -365.82572266 491.5988916 -366.72021484 490.71411133 C-372.6397074 484.76456771 -378.00017014 478.51319638 -383.21435547 471.94140625 C-384.11637695 470.82838135 -384.11637695 470.82838135 -385.03662109 469.69287109 C-419.08349824 427.66319623 -440.56623109 377.21060428 -449.21435547 323.94140625 C-449.46209717 322.471875 -449.46209717 322.471875 -449.71484375 320.97265625 C-456.73180926 277.78239902 -452.68886702 232.31243163 -440.73828125 190.42822266 C-439.14082678 184.51081878 -439.10793483 179.14906763 -439.34326172 173.0234375 C-439.0528044 166.07886696 -435.44578472 161.25096679 -430.86279297 156.3359375 C-426.74074502 151.69572938 -424.40039892 146.63965122 -421.90185547 141.00390625 C-417.25069617 130.91283225 -412.13132706 121.34210669 -406.21435547 111.94140625 C-405.56080078 110.90242187 -404.90724609 109.8634375 -404.23388672 108.79296875 C-386.6469593 81.74173605 -364.67700324 55.8702186 -339.21435547 35.94140625 C-338.10902583 35.02640718 -337.00630676 34.10824835 -335.90576172 33.1875 C-292.47900116 -2.87041244 -238.66656021 -23.89101161 -183.21435547 -32.05859375 C-182.35132813 -32.18991699 -181.48830078 -32.32124023 -180.59912109 -32.45654297 C-119.91910913 -41.25736651 -53.86367463 -28.68084642 0 0 Z " fill="#0B998A" transform="translate(456.21435546875,37.05859375)"/>
<path d="M0 0 C1.25490234 -0.01224609 2.50980469 -0.02449219 3.80273438 -0.03710938 C16.08095764 -0.0563041 27.33386208 1.01843584 37.6875 8.1875 C43.28188226 14.5157461 45.22488736 19.98419003 45.16015625 28.34375 C42.71494659 48.22876079 26.48566169 64.65128827 14.01586914 79.10522461 C10.08208148 83.6809514 6.31275908 88.36233122 2.6875 93.1875 C3.56978749 92.30521251 4.4483896 91.41924293 5.32641602 90.53271484 C7.6315353 88.20657461 9.94075472 85.88454395 12.25 83.5625 C13.03697266 82.76714844 13.82394531 81.97179687 14.63476562 81.15234375 C18.91277828 76.85669708 23.25973462 72.72457603 27.8581543 68.77392578 C30.06290931 66.86194152 32.1810743 64.87059193 34.30029297 62.86499023 C40.85386551 56.67856165 47.69592587 50.99889138 54.87841797 45.55957031 C56.0977945 44.63475302 57.31289695 43.70427651 58.52392578 42.76855469 C67.45819489 35.86854269 76.52497028 30.1118612 86.6875 25.1875 C87.42226562 24.8059375 88.15703125 24.424375 88.9140625 24.03125 C95.08186294 21.19668639 102.06067622 21.48782322 108.6875 22.1875 C113.55607701 24.20208359 115.92542039 27.13999448 117.98828125 31.875 C122.46034019 46.66527316 113.0812258 61.89440515 106.34643555 74.48193359 C105.13432274 76.7213695 103.91576812 78.95689291 102.6875 81.1875 C103.35394531 80.51203125 104.02039063 79.8365625 104.70703125 79.140625 C110.86523838 72.98458245 117.31352762 67.11799446 123.6875 61.1875 C124.60402344 60.3315625 125.52054688 59.475625 126.46484375 58.59375 C143.53173456 42.91833615 165.95118456 23.85569642 190.0625 22.75 C193.16550188 22.8883504 194.89028042 23.27266778 197.8125 24.5 C200.32676686 28.1037825 200.57808696 30.55554246 200.33203125 34.91015625 C197.63722416 48.61284198 187.49839422 60.7600669 179.84375 72.0390625 C141.04618555 125.28144303 141.04618555 125.28144303 126.6875 187.1875 C127.59937186 189.5131349 127.59937186 189.5131349 128.6875 191.1875 C134.77158472 191.38564261 134.77158472 191.38564261 140.6875 190.1875 C139.8125 195.0625 139.8125 195.0625 138.6875 196.1875 C130.02454558 197.27482556 121.30209442 195.1777213 114.25 189.9375 C108.79754991 184.08609015 106.98780273 178.27536395 107.1875 170.375 C107.21106567 169.1828186 107.21106567 169.1828186 107.23510742 167.96655273 C107.48109389 161.35187548 108.60611526 156.10063831 111.6875 150.1875 C111.99993652 149.58583008 112.31237305 148.98416016 112.63427734 148.36425781 C125.95910512 123.18088317 143.39761635 99.72241413 159.96484375 76.61328125 C172.66763054 60.4646781 172.66763054 60.4646781 177.875 41.375 C177.86855469 40.60542969 177.86210937 39.83585937 177.85546875 39.04296875 C177.8858129 37.17232089 177.8858129 37.17232089 176.6875 36.1875 C166.89691576 34.73636275 159.58293464 37.86328598 151.75830078 43.60253906 C144.24092735 49.36904428 137.05906651 55.57266072 130.09375 61.9921875 C128.76063282 63.20844051 127.4196235 64.41674929 126.04858398 65.59008789 C120.22540754 70.57956121 114.7538849 75.90116815 109.32446289 81.31030273 C107.76308711 82.86199407 106.19132623 84.40263223 104.61914062 85.94335938 C95.20407127 95.25756822 87.58968603 105.36444756 80.6875 116.6875 C78.69745486 119.86049004 76.69242473 123.02389844 74.6875 126.1875 C74.26936035 126.85571777 73.8512207 127.52393555 73.42041016 128.21240234 C67.42301545 137.65811321 67.42301545 137.65811321 63.203125 138.9453125 C59.96105216 139.01758801 57.58744632 138.63747316 54.6875 137.1875 C54.9845256 130.08858826 58.27863774 125.02813028 61.8125 119 C63.09062905 116.76551561 64.36659105 114.52979057 65.640625 112.29296875 C65.97113861 111.71518677 66.30165222 111.13740479 66.6421814 110.54211426 C76.32285913 93.60173093 85.858164 76.50607504 92.6875 58.1875 C93.25210938 56.70636719 93.25210938 56.70636719 93.828125 55.1953125 C95.8188177 49.38610926 96.6823574 43.29319344 95.6875 37.1875 C94.27500053 34.61410252 93.49011332 33.44005979 90.6640625 32.55078125 C75.41337563 32.22144748 61.8012556 45.39811911 50.73022461 54.64697266 C48.80101855 56.25776607 46.86236213 57.85736219 44.91113281 59.44140625 C32.97491325 69.26876222 22.23161526 80.37792292 11.34680176 91.33258057 C9.20871097 93.48154079 7.06499999 95.624849 4.92116642 97.76807785 C2.83176162 99.85775624 0.74498478 101.95004259 -1.34094429 104.04319 C-2.32540447 105.03079327 -3.31043702 106.01782638 -4.29609489 107.00423431 C-9.84692215 112.56393335 -15.22992032 118.19547258 -20.3125 124.1875 C-24.19335362 128.67055505 -28.11791546 132.99291546 -32.3125 137.1875 C-33.01632813 138.00992188 -33.72015625 138.83234375 -34.4453125 139.6796875 C-35.22648437 140.58976563 -36.00765625 141.49984375 -36.8125 142.4375 C-37.5446875 143.30890625 -38.276875 144.1803125 -39.03125 145.078125 C-41.53378039 147.39210858 -42.96740718 147.88125911 -46.3125 148.1875 C-45.88096586 142.95891189 -43.10436062 139.75085355 -40 135.75 C-39.46600586 135.04987793 -38.93201172 134.34975586 -38.38183594 133.62841797 C-33.80645195 127.6900681 -28.96955628 121.99851612 -24.046875 116.34765625 C-21.06935339 112.92595703 -18.22660282 109.40912007 -15.41796875 105.84765625 C-13.83070277 103.84222372 -12.2297354 101.85275305 -10.61328125 99.87109375 C16.52363551 68.61633145 16.52363551 68.61633145 25.6875 30.1875 C23.42857073 24.78571262 20.18236859 23.08364584 15.00390625 20.94921875 C-19.16435434 9.71345009 -72.76738521 28.20024695 -103.5 43.375 C-108.69207341 46.08152741 -113.48982644 48.69585857 -117.3125 53.1875 C-118.2293022 56.73071553 -118.2293022 56.73071553 -117.3125 60.1875 C-115.45533813 63.09559543 -115.45533813 63.09559543 -113.3125 65.1875 C-116.87738931 64.98379204 -118.33190518 64.17154463 -121.125 61.875 C-124.06153817 57.9875828 -124.0064279 54.02284166 -123.80078125 49.29296875 C-122.66656468 42.07935135 -119.07030875 35.6936112 -113.3125 31.1875 C-109.75543522 28.9576982 -106.06524695 27.06598889 -102.3125 25.1875 C-101.62816895 24.84138672 -100.94383789 24.49527344 -100.23876953 24.13867188 C-88.88232184 18.43191424 -77.5050744 13.77293006 -65.3125 10.1875 C-64.5709668 9.96610352 -63.82943359 9.74470703 -63.06542969 9.51660156 C-49.68517764 5.58055333 -36.09671099 3.22270831 -22.3125 1.1875 C-21.054375 0.99027344 -19.79625 0.79304687 -18.5 0.58984375 C-12.36616699 -0.14210975 -6.16727928 0.00313856 0 0 Z " fill="#F9FCFC" transform="translate(140.3125,160.8125)"/>
<path d="M0 0 C0.91136719 -0.00515625 1.82273437 -0.0103125 2.76171875 -0.015625 C5.3979482 0.25889813 7.04680821 0.91287042 9.3125 2.25 C9.9294078 9.65289363 7.37101619 14.91596505 2.71875 20.63671875 C1.75909331 21.74491936 0.78997367 22.84498237 -0.1875 23.9375 C-0.70868408 24.53272461 -1.22986816 25.12794922 -1.7668457 25.74121094 C-8.02102707 32.84435498 -14.44415281 39.81180524 -20.984375 46.65234375 C-35.10096388 61.72205999 -47.37806258 80.10991271 -55.875 98.9375 C-56.31271729 99.89003662 -56.31271729 99.89003662 -56.75927734 100.86181641 C-58.57310725 105.1144282 -59.12425443 108.64989819 -58.6875 113.25 C-56.80611241 115.53930236 -56.80611241 115.53930236 -53.75 115.625 C-39.36976482 115.11886336 -27.01334548 104.12213429 -16.6875 95.25 C-15.40166016 94.1671875 -15.40166016 94.1671875 -14.08984375 93.0625 C-9.62915277 89.20162372 -5.74448333 85.24008869 -2.0625 80.625 C7.04702318 69.27361843 18.99515066 61.56027553 33.3125 58.25 C42.74161429 57.31685405 51.54055374 57.8109329 59.2578125 63.74609375 C60.9375 65.3125 60.9375 65.3125 63.3125 68.25 C63.3125 69.24 63.3125 70.23 63.3125 71.25 C64.405625 71.353125 65.49875 71.45625 66.625 71.5625 C70.3125 72.25 70.3125 72.25 72.25 73.5 C73.77045402 76.00427721 73.71153709 77.33744064 73.3125 80.25 C71.70956065 82.41868264 70.14095765 84.2933082 68.3125 86.25 C64.39295977 90.67181687 60.78690613 95.12695914 57.625 100.125 C56.98175781 101.13304687 56.33851563 102.14109375 55.67578125 103.1796875 C54.08925093 106.75279017 54.05558729 109.38176716 54.3125 113.25 C69.54251792 112.67528234 82.36957075 100.20280517 93.0078125 90.36328125 C95.10221405 88.44282153 97.25239405 86.62775338 99.4375 84.8125 C105.22453355 79.7782513 112.94708314 72.48276947 113.5078125 64.453125 C113.48460937 63.47859375 113.46140625 62.5040625 113.4375 61.5 C113.41945313 60.51515625 113.40140625 59.5303125 113.3828125 58.515625 C113.35960937 57.76796875 113.33640625 57.0203125 113.3125 56.25 C117.62750846 56.94297321 119.45006673 57.87641794 122.3125 61.25 C125.71413039 68.05326078 122.84275504 78.18623343 121.3125 85.25 C121.71339844 84.71632813 122.11429688 84.18265625 122.52734375 83.6328125 C139.80045774 60.99367444 139.80045774 60.99367444 154.38671875 58.9609375 C158.28951173 58.67844963 160.73976812 59.17730433 163.75 61.5625 C167.02775852 65.00014917 167.86483666 67.95518289 167.76953125 72.703125 C165.64016857 84.56931702 156.41986899 94.95030824 149.3125 104.25 C147.18741756 107.43762365 146.8104837 109.51512223 146.3125 113.25 C158.94278978 110.5627043 170.23656763 99.79321092 178.89111328 90.56713867 C180.3125 89.25 180.3125 89.25 182.3125 89.25 C182.3125 93.25 182.3125 93.25 181.01953125 94.78515625 C180.39433594 95.28917969 179.76914062 95.79320312 179.125 96.3125 C178.39152344 96.91320312 177.65804688 97.51390625 176.90234375 98.1328125 C176.04769531 98.83148438 175.19304687 99.53015625 174.3125 100.25 C173.34441406 101.11367188 172.37632812 101.97734375 171.37890625 102.8671875 C162.22793508 111.01024212 150.08249861 121.361499 137.25 121.625 C132.85936715 121.20684449 131.34003308 120.36927651 128.3125 117.25 C126.37700546 113.37901093 126.6737562 109.45596555 127.3125 105.25 C131.06476247 94.97364245 137.40383448 86.59110922 144.3125 78.25 C144.960979 77.46520264 144.960979 77.46520264 145.62255859 76.66455078 C146.05004395 76.14747559 146.4775293 75.63040039 146.91796875 75.09765625 C147.72878906 74.11667969 148.53960938 73.13570313 149.375 72.125 C150.10847656 71.25617188 150.84195312 70.38734375 151.59765625 69.4921875 C153.48390775 67.27767827 153.48390775 67.27767827 154.3125 64.25 C144.51225907 64.90901837 138.26545442 69.77411421 131.85107422 76.86572266 C125.22341623 84.55170676 119.41504939 92.84965757 113.61499023 101.16479492 C100.9953204 119.19914721 100.9953204 119.19914721 94.3125 122.25 C89.76702321 122.89935383 87.86962785 122.57414711 83.875 120.25 C83.029375 119.59 82.18375 118.93 81.3125 118.25 C81.82500382 113.89371756 84.63592005 111.0175365 87.3125 107.75 C88.30974815 106.50873908 89.30582105 105.26653313 90.30078125 104.0234375 C90.80303223 103.39791992 91.3052832 102.77240234 91.82275391 102.12792969 C94.10434644 99.2518219 96.30716661 96.31904874 98.5 93.375 C99.23605469 92.38757813 99.97210937 91.40015625 100.73046875 90.3828125 C101.51357422 89.32707031 101.51357422 89.32707031 102.3125 88.25 C99.15419436 90.73853699 96.0896891 93.30671211 93.06396484 95.9543457 C63.39338038 121.72041835 63.39338038 121.72041835 46.5703125 121.609375 C42.70736202 120.99451091 40.97164356 119.04210074 38.3125 116.25 C37.02189967 113.66879934 37.17977667 111.75580171 37.1875 108.875 C37.18492187 107.91851562 37.18234375 106.96203125 37.1796875 105.9765625 C37.29698122 103.56859146 37.62574049 101.55009932 38.3125 99.25 C37.66925781 99.95125 37.02601563 100.6525 36.36328125 101.375 C26.96431328 111.24324597 15.39886712 120.99065733 1.1875 121.6875 C-3.46526026 121.53026386 -6.16567289 120.42823422 -9.6875 117.25 C-13.39473158 112.92489649 -13.09294342 108.6589838 -12.6875 103.25 C-12.42898628 100.89321657 -12.0856392 98.58906777 -11.6875 96.25 C-12.574375 97.19875 -13.46125 98.1475 -14.375 99.125 C-24.75726773 109.42404313 -40.23329586 122.19590117 -55.4375 122.5625 C-61.1587069 122.50023777 -64.22853166 121.85512334 -68.6875 118.25 C-72.33270932 113.31132931 -72.46911616 108.15737269 -71.6875 102.25 C-70.78467793 99.00609385 -69.73389748 95.87501544 -68.5625 92.71875 C-67.576144 90.37235489 -67.576144 90.37235489 -67.6875 88.25 C-68.47511719 89.00023437 -69.26273437 89.75046875 -70.07421875 90.5234375 C-80.03115101 99.92111305 -90.13483455 108.45135498 -102.0625 115.25 C-102.71645752 115.62406982 -103.37041504 115.99813965 -104.04418945 116.38354492 C-110.57772733 119.97611695 -117.18651235 122.19500632 -124.6875 121.25 C-129.77522075 119.63888843 -133.18060478 118.06323883 -135.6875 113.25 C-137.07640937 105.77404432 -135.44807305 100.66893295 -131.29296875 94.44140625 C-129.7725329 92.36606681 -128.24230261 90.29972477 -126.6875 88.25 C-127.84378906 89.3328125 -127.84378906 89.3328125 -129.0234375 90.4375 C-130.03621795 91.37525968 -131.04925196 92.31274557 -132.0625 93.25 C-132.57039063 93.72695313 -133.07828125 94.20390625 -133.6015625 94.6953125 C-137.4609375 98.25 -137.4609375 98.25 -139.6875 98.25 C-139.11646382 94.6663914 -137.88008259 93.13041019 -135.22265625 90.7109375 C-134.50988525 90.05270996 -133.79711426 89.39448242 -133.06274414 88.71630859 C-132.29953857 88.02617676 -131.53633301 87.33604492 -130.75 86.625 C-129.18612442 85.18899663 -127.62361823 83.75150047 -126.0625 82.3125 C-125.30582031 81.61640625 -124.54914063 80.9203125 -123.76953125 80.203125 C-121.165249 77.76008349 -118.71083077 75.21202722 -116.25 72.625 C-111.13638203 67.4678248 -105.57366291 62.73577036 -98.1875 61.8125 C-95.6875 62.25 -95.6875 62.25 -93.6875 63.25 C-95.31111937 66.85804304 -97.53207546 69.82233299 -99.875 73 C-107.42450734 83.56379633 -114.34524045 97.09519094 -113.6875 110.25 C-113.1925 111.24 -113.1925 111.24 -112.6875 112.25 C-93.93988042 111.39783547 -76.07315626 92.19504126 -63.875 79.3125 C-56.57228121 71.08671755 -50.14491562 62.14303583 -43.6875 53.25 C-43.0672998 52.39599609 -42.44709961 51.54199219 -41.80810547 50.66210938 C-35.50668336 41.93526572 -29.4090398 33.11191133 -23.875 23.875 C-23.46016357 23.19155518 -23.04532715 22.50811035 -22.61791992 21.80395508 C-20.37466786 17.95349646 -19.11437111 14.77063505 -18.6875 10.25 C-21.9875 10.91 -25.2875 11.57 -28.6875 12.25 C-28.6875 11.59 -28.6875 10.93 -28.6875 10.25 C-26.17037811 8.95064536 -23.64920913 7.66045628 -21.125 6.375 C-20.42052734 6.01019531 -19.71605469 5.64539063 -18.99023438 5.26953125 C-12.82185157 2.14270126 -7.01753078 -0.04004297 0 0 Z " fill="#F9FCFC" transform="translate(440.6875,185.75)"/>
<path d="M0 0 C4.40837319 4.58423914 6.75358201 9.46858921 7.09375 15.83984375 C6.81925892 22.29953379 4.27351438 27.78759379 1.46875 33.52734375 C0.34375 29.77734375 0.34375 29.77734375 1.46875 27.52734375 C1.82950537 22.69875334 1.82950537 22.69875334 0.28125 18.21484375 C-3.94198254 14.28286863 -8.82199085 14.17143468 -14.34375 14.21484375 C-15.46535522 14.22221558 -15.46535522 14.22221558 -16.60961914 14.22973633 C-24.45265097 14.39067405 -31.91592648 15.70278254 -39.53125 17.52734375 C-40.56838135 17.76880127 -40.56838135 17.76880127 -41.62646484 18.01513672 C-75.43502746 26.06332187 -110.03066085 42.79869886 -135.53125 66.52734375 C-136.37042969 67.2853125 -137.20960938 68.04328125 -138.07421875 68.82421875 C-146.94254809 77.1888392 -158.65742462 91.27669989 -159.734375 103.91015625 C-159.87230692 111.97917339 -159.05113523 119.92481783 -153.28515625 126.12109375 C-138.20067639 138.21555422 -117.91345111 137.84604374 -99.67773438 136.28271484 C-60.93288631 131.97849448 -19.73417497 113.62426156 7.46875 85.52734375 C9.82060744 82.21940513 10.85489566 79.75299184 11.15625 75.71484375 C11.25486328 74.52955078 11.25486328 74.52955078 11.35546875 73.3203125 C11.39285156 72.72863281 11.43023437 72.13695312 11.46875 71.52734375 C10.19615489 71.98076243 8.92573757 72.44029602 7.65625 72.90234375 C6.94855469 73.15757812 6.24085938 73.4128125 5.51171875 73.67578125 C3.22101641 74.55392065 3.22101641 74.55392065 0.46875 76.52734375 C-0.52125 76.52734375 -1.51125 76.52734375 -2.53125 76.52734375 C-0.71126489 71.89465439 2.52184709 69.55202949 6.84375 67.27734375 C11.54721429 65.93349681 15.20512089 66.05050258 19.78125 67.77734375 C22.67234903 69.65991986 23.24052939 70.41548436 24.46875 73.52734375 C27.83909182 90.13042106 14.98149208 108.17224145 6.46875 121.52734375 C5.9938916 122.2740332 5.5190332 123.02072266 5.02978516 123.79003906 C-12.10962569 150.5318204 -33.26414422 177.81696216 -66.05078125 185.0859375 C-71.14890512 185.73250091 -76.20953717 185.75222222 -81.34375 185.77734375 C-82.38595703 185.79796875 -83.42816406 185.81859375 -84.50195312 185.83984375 C-97.33980945 185.90431509 -106.14586547 181.63510286 -115.40625 172.77734375 C-119.04946808 167.20536316 -121.53125 161.22128127 -121.53125 154.52734375 C-120.87125 154.52734375 -120.21125 154.52734375 -119.53125 154.52734375 C-119.263125 155.37296875 -118.995 156.21859375 -118.71875 157.08984375 C-114.91162969 168.11045518 -109.87771573 174.16905708 -99.609375 179.6171875 C-89.89332015 183.87252731 -78.79529936 181.88324233 -69.2265625 178.19140625 C-57.60538414 173.23166416 -48.47727683 164.19304549 -39.53125 155.52734375 C-38.51417969 154.57021484 -38.51417969 154.57021484 -37.4765625 153.59375 C-32.33748639 148.6559741 -27.96552506 143.09317225 -23.53125 137.52734375 C-22.64218642 136.42947743 -21.75285594 135.33182722 -20.86328125 134.234375 C-11.08496748 122.08430002 -2.6126353 109.4321831 4.46875 95.52734375 C4.06527344 95.90503906 3.66179687 96.28273438 3.24609375 96.671875 C-7.93126384 106.8050633 -20.42309502 115.12683515 -33.53125 122.52734375 C-34.18287109 122.90101074 -34.83449219 123.27467773 -35.50585938 123.65966797 C-64.28334937 140.05500665 -102.23008567 153.22991388 -135.53125 144.52734375 C-146.41518565 141.47781999 -156.25381667 134.62649141 -162.34765625 125.05859375 C-165.57239147 118.16213031 -167.06937552 111.89029326 -166.96875 104.27734375 C-166.95972656 103.4481543 -166.95070312 102.61896484 -166.94140625 101.76464844 C-166.46317019 84.63449838 -157.69689711 69.12827253 -146.53125 56.52734375 C-145.79777344 55.68558594 -145.06429687 54.84382813 -144.30859375 53.9765625 C-142.08282945 51.4606471 -139.81707791 48.98869059 -137.53125 46.52734375 C-136.95375 45.88410156 -136.37625 45.24085938 -135.78125 44.578125 C-119.47459703 27.21590744 -96.98512066 14.40666219 -75.53125 4.52734375 C-74.35304688 3.97433594 -73.17484375 3.42132813 -71.9609375 2.8515625 C-52.08190995 -6.10956513 -19.08219217 -15.38735594 0 0 Z " fill="#FAFCFC" transform="translate(206.53125,321.47265625)"/>
<path d="M0 0 C3.90168567 2.63363783 6.22965742 5.23591423 7.21875 9.953125 C7.63516826 19.11432681 2.89757746 26.88315204 -2.875 33.703125 C-7.5755483 38.6431352 -12.78403538 42.87161454 -18.1875 47.015625 C-18.76983398 47.46228516 -19.35216797 47.90894531 -19.95214844 48.36914062 C-45.72627075 68.015625 -45.72627075 68.015625 -55.1875 68.015625 C-53.78575429 63.81038787 -50.85268846 63.00399616 -47.125 61.078125 C-34.2294288 54.11888793 -22.763406 45.13665333 -12.1875 35.015625 C-11.44757813 34.32726562 -10.70765625 33.63890625 -9.9453125 32.9296875 C-4.71063154 27.92510241 -0.41679075 23.62695432 0.0625 16.078125 C-0.02 15.0675 -0.1025 14.056875 -0.1875 13.015625 C-14.12498699 14.46344906 -24.34838022 23.8172824 -34.1875 33.015625 C-34.75001465 33.53962891 -35.3125293 34.06363281 -35.89208984 34.60351562 C-43.60734628 41.86862212 -50.3234303 49.62058864 -56.70263672 58.06884766 C-58.31134627 60.1779976 -59.95096574 62.26022484 -61.59765625 64.33984375 C-69.2079107 73.97145831 -76.37207814 83.80640123 -83.1875 94.015625 C-79.82034705 90.67803814 -79.82034705 90.67803814 -76.5546875 87.2421875 C-68.91920221 79.04703313 -57.45114714 70.98628974 -45.9375 70.578125 C-41.93316442 70.75195662 -39.35850085 71.42116976 -36.1875 74.015625 C-35.589375 74.428125 -34.99125 74.840625 -34.375 75.265625 C-32.32268811 78.29008462 -32.73230824 80.43098991 -33.1875 84.015625 C-36.64226699 93.58149095 -42.05749695 99.58800802 -51 104.265625 C-61.72356795 109.2292567 -70.42352199 110.43912821 -82.1875 110.015625 C-75.75862932 118.27791436 -65.53229388 126.37591898 -55.1875 129.015625 C-50.31979514 129.46292761 -45.84793769 129.56910423 -41.1875 128.015625 C-39.50211399 126.01897186 -39.50211399 126.01897186 -38.1875 124.015625 C-38.47400983 127.45374294 -38.92183227 128.75733693 -41.4375 131.203125 C-46.71309759 134.68022341 -51.18006005 135.37622744 -57.4375 135.328125 C-58.19820801 135.32248535 -58.95891602 135.3168457 -59.74267578 135.31103516 C-65.38017776 135.1891367 -70.08671209 134.54244785 -75.1875 132.015625 C-76.10144531 131.56703125 -77.01539063 131.1184375 -77.95703125 130.65625 C-84.91788278 127.0407073 -90.53558201 123.42553525 -95.1875 117.015625 C-100.13305958 128.07689889 -101.1247201 141.19510507 -98.1875 153.015625 C-102.40891034 151.50797845 -103.99099864 148.80269631 -106.1875 145.015625 C-109.79056616 134.0879046 -106.40924774 122.54776421 -103.1875 112.015625 C-102.84310518 110.68510589 -102.50358245 109.35315286 -102.1875 108.015625 C-103.610625 109.253125 -103.610625 109.253125 -105.0625 110.515625 C-107.9375 113.015625 -107.9375 113.015625 -110.1875 113.015625 C-108.67352956 109.48839601 -106.58081518 107.15082146 -103.9375 104.390625 C-98.10651174 97.99234761 -94.27386703 91.27847737 -90.48364258 83.52587891 C-80.98615362 64.11601937 -69.22801347 46.17256475 -54.4140625 30.39453125 C-52.45162685 28.29782368 -50.59507701 26.15235186 -48.75 23.953125 C-38.44563486 12.20758991 -17.51289691 -7.88080361 0 0 Z " fill="#F7FCFB" transform="translate(519.1875,319.984375)"/>
<path d="M0 0 C1.83498047 -0.03867187 1.83498047 -0.03867187 3.70703125 -0.078125 C7.38085454 0.26822871 9.23174837 1.11059882 12.1875 3.25 C10.98591673 6.85474981 9.10712977 7.98674452 6.2578125 10.3515625 C2.58358059 13.72076384 -0.38349313 17.66954438 -3.47021484 21.57080078 C-4.93680714 23.40550828 -6.42869888 25.2174382 -7.92578125 27.02734375 C-14.93565832 35.51900034 -21.6164421 44.14580073 -27.8125 53.25 C-28.19889648 53.81396484 -28.58529297 54.37792969 -28.98339844 54.95898438 C-39.56340289 70.51416275 -53.14750958 92.12158809 -53.0625 111.3125 C-53.06765625 112.47910156 -53.0728125 113.64570313 -53.078125 114.84765625 C-52.80953698 118.28795275 -52.04392754 121.03949248 -50.8125 124.25 C-54.58867639 122.6157724 -56.30391852 120.78008686 -58.05078125 116.96875 C-61.03005392 106.33503832 -58.54269319 94.65073594 -55.8125 84.25 C-56.30878906 84.89066406 -56.80507813 85.53132813 -57.31640625 86.19140625 C-65.72310786 96.89519521 -74.82849944 107.92478416 -89.1796875 109.65625 C-96.1542251 109.8426519 -100.85563529 109.68970431 -106.26171875 105.05078125 C-110.87478783 99.6940436 -111.21066564 95.78143237 -111 88.9375 C-110.98646484 88.10154297 -110.97292969 87.26558594 -110.95898438 86.40429688 C-110.92381217 84.35258502 -110.87001048 82.30120725 -110.8125 80.25 C-111.245625 80.745 -111.67875 81.24 -112.125 81.75 C-113.8125 83.25 -113.8125 83.25 -116.8125 83.25 C-116.41541784 78.75331283 -113.21500317 76.35995347 -110.125 73.4375 C-105.24319668 68.73523143 -105.24319668 68.73523143 -100.875 63.5625 C-92.91696666 54.04543674 -79.79303488 47.59049134 -67.8125 45.25 C-60.35300428 44.64810947 -52.84781388 44.18551409 -46.8125 49.25 C-45.3125 52 -45.3125 52 -44.8125 54.25 C-42.27359046 51.96530321 -40.88179649 49.72323554 -39.38671875 46.6640625 C-38.92676514 45.74294678 -38.46681152 44.82183105 -37.99291992 43.87280273 C-37.25392456 42.38889038 -37.25392456 42.38889038 -36.5 40.875 C-32.23853574 32.52602229 -27.67526354 24.50519879 -22.5 16.6875 C-21.93821045 15.82656738 -21.3764209 14.96563477 -20.79760742 14.07861328 C-15.21260707 5.8148159 -10.30478523 0.12948421 0 0 Z " fill="#F9FCFC" transform="translate(440.8125,350.75)"/>
<path d="M0 0 C2 2 2 2 2.875 4.0625 C4.68722025 7.18354599 7.74299784 7.72046344 11 9 C13 11 13 11 13.125 13.5625 C11.71537665 17.86968247 9.41715021 20.02977781 6.33984375 23.28515625 C0.37849913 30.20190835 -6.20139486 38.73583664 -6 48 C8.89887036 47.02833454 22.35162079 34.72541054 32.80078125 24.984375 C35.70234766 22.36626534 38.76203632 20.18210596 42 18 C42 22 42 22 40.3046875 23.97265625 C2.24195212 56.71150421 2.24195212 56.71150421 -13.07421875 56.25 C-17.1060887 55.72659295 -19.28772855 53.85963796 -21.8125 50.8125 C-24.35492452 44.79096825 -23.10830734 39.90494048 -21 34 C-21.66644531 34.71285156 -22.33289063 35.42570312 -23.01953125 36.16015625 C-32.18695936 45.76772843 -43.02454951 54.81647198 -56.6875 56.4375 C-61.74228182 55.76988731 -65.54289225 54.46757172 -69.17578125 50.80859375 C-72.5177089 45.66331327 -71.64582123 39.91124125 -71 34 C-70.10827309 30.66854835 -68.78527659 27.94045556 -67 25 C-66.55269531 24.25234375 -66.10539062 23.5046875 -65.64453125 22.734375 C-57.1392797 9.32663261 -46.92070289 1.44893002 -32 -4 C-30.845 -4.433125 -29.69 -4.86625 -28.5 -5.3125 C-17.85866149 -7.40276292 -9.03776351 -6.02517567 0 0 Z " fill="#F8FCFB" transform="translate(554,401)"/>
<path d="M0 0 C4.31500846 0.69297321 6.13756673 1.62641794 9 5 C12.40163039 11.80326078 9.53025504 21.93623343 8 29 C8.40089844 28.46632813 8.80179688 27.93265625 9.21484375 27.3828125 C26.48795774 4.74367444 26.48795774 4.74367444 41.07421875 2.7109375 C44.97701173 2.42844963 47.42726812 2.92730433 50.4375 5.3125 C53.71525852 8.75014917 54.55233666 11.70518289 54.45703125 16.453125 C52.32766857 28.31931702 43.10736899 38.70030824 36 48 C33.87491756 51.18762365 33.4979837 53.26512223 33 57 C45.63028978 54.3127043 56.92406763 43.54321092 65.57861328 34.31713867 C67 33 67 33 69 33 C69 37 69 37 67.70703125 38.53515625 C67.08183594 39.03917969 66.45664062 39.54320312 65.8125 40.0625 C65.07902344 40.66320312 64.34554687 41.26390625 63.58984375 41.8828125 C62.30787109 42.93082031 62.30787109 42.93082031 61 44 C60.03191406 44.86367188 59.06382812 45.72734375 58.06640625 46.6171875 C48.91543508 54.76024212 36.76999861 65.111499 23.9375 65.375 C19.54686715 64.95684449 18.02753308 64.11927651 15 61 C13.06450546 57.12901093 13.3612562 53.20596555 14 49 C17.75226247 38.72364245 24.09133448 30.34110922 31 22 C31.43231934 21.47680176 31.86463867 20.95360352 32.31005859 20.41455078 C32.73754395 19.89747559 33.1650293 19.38040039 33.60546875 18.84765625 C34.41628906 17.86667969 35.22710938 16.88570313 36.0625 15.875 C37.16271484 14.57175781 37.16271484 14.57175781 38.28515625 13.2421875 C40.17140775 11.02767827 40.17140775 11.02767827 41 8 C31.19975907 8.65901837 24.95295442 13.52411421 18.53857422 20.61572266 C11.91091623 28.30170676 6.10254939 36.59965757 0.30249023 44.91479492 C-12.3171796 62.94914721 -12.3171796 62.94914721 -19 66 C-23.54547679 66.64935383 -25.44287215 66.32414711 -29.4375 64 C-30.283125 63.34 -31.12875 62.68 -32 62 C-31.48749618 57.64371756 -28.67657995 54.7675365 -26 51.5 C-25.00275185 50.25873908 -24.00667895 49.01653313 -23.01171875 47.7734375 C-22.25834229 46.83516113 -22.25834229 46.83516113 -21.48974609 45.87792969 C-19.20815356 43.0018219 -17.00533339 40.06904874 -14.8125 37.125 C-14.07644531 36.13757813 -13.34039063 35.15015625 -12.58203125 34.1328125 C-12.05996094 33.42898438 -11.53789063 32.72515625 -11 32 C-13.81073196 34.20542452 -16.55184818 36.46483756 -19.2265625 38.83203125 C-19.7834375 39.31994141 -20.3403125 39.80785156 -20.9140625 40.31054688 C-22.0688053 41.32424232 -23.21713279 42.34528615 -24.359375 43.37304688 C-25.84158114 44.66049802 -27.41593853 45.84016607 -29 47 C-29.99 46.67 -30.98 46.34 -32 46 C-28.54379717 41.6096883 -24.99149123 38.06055139 -20.625 34.5625 C-6.66882869 23.52254609 -6.66882869 23.52254609 0.43359375 7.8515625 C0.43700979 5.19388377 0.32128817 2.63660289 0 0 Z " fill="#F8FCFC" transform="translate(554,242)"/>
<path d="M0 0 C3.75212276 2.01502889 5.63644095 3.45466142 8 7 C9.31640125 17.36665986 4.32578478 25.13076958 -1.80322266 33.13183594 C-3.06254392 34.73308595 -4.34708382 36.31440675 -5.6328125 37.89453125 C-10.55231759 44.26840651 -10.55231759 44.26840651 -12 52 C-7.04210241 51.07452578 -3.86123757 48.07399496 0 45 C1.5159375 43.824375 1.5159375 43.824375 3.0625 42.625 C9.41472636 36.9485424 14.66070729 30.0682928 20.0625 23.5 C20.94131836 22.43845703 20.94131836 22.43845703 21.83789062 21.35546875 C25.25418257 17.20738507 28.53833933 12.99718283 31.69335938 8.64648438 C34.49583665 5.11511167 36.981139 4.13207457 41.375 3.5625 C45.88193095 4.10643994 48.22645585 5.53564464 52 8 C49.70212992 12.59574016 47.00143209 16.2487671 43.625 20.125 C38.87716921 25.64520518 34.74670187 31.52231359 30.6875 37.5625 C30.1011377 38.42439941 29.51477539 39.28629883 28.91064453 40.17431641 C20.79884839 52.14467797 20.79884839 52.14467797 19 66 C19.33 66.99 19.66 67.98 20 69 C14.51866405 67.66011788 14.51866405 67.66011788 12.32421875 64.8671875 C8.69702465 57.0136168 10.48627879 46.75320169 13.34375 38.85546875 C14.11114765 37.01376036 14.11114765 37.01376036 14 35 C13.23429687 36.01707031 13.23429687 36.01707031 12.453125 37.0546875 C4.6731421 47.01416916 -5.24754162 58.34034304 -18.37890625 60.3671875 C-22.41314875 60.59315825 -24.48524101 60.31100022 -28 58.1875 C-30.89960752 55.01605428 -31.54282333 51.81698748 -31.45703125 47.55078125 C-29.05876497 34.16558566 -18.07487159 22.70690307 -9.375 12.875 C-7.17114308 10.20717321 -6.61986924 9.20954516 -6 6 C-9.09692676 5.69852925 -10.64018702 5.77806494 -13.32421875 7.43359375 C-14.10410156 8.09488281 -14.88398438 8.75617188 -15.6875 9.4375 C-16.55761719 10.1696875 -17.42773438 10.901875 -18.32421875 11.65625 C-23.54121221 16.22587931 -28.68788694 20.86324383 -33.78125 25.5703125 C-34.6784375 26.39273437 -35.575625 27.21515625 -36.5 28.0625 C-37.3146875 28.81660156 -38.129375 29.57070313 -38.96875 30.34765625 C-41 32 -41 32 -43 32 C-42.47055354 28.03797562 -40.75010231 26.58355372 -37.75 24.0625 C-33.40362213 20.30767786 -29.37631759 16.36831859 -25.375 12.25 C-18.22407 4.96455994 -10.96585967 -1.53397659 0 0 Z " fill="#F9FCFC" transform="translate(277,396)"/>
<path d="M0 0 C2 2 2 2 2.25 4.75 C1.98998031 8.13025595 1.20288037 10.84243904 0 14 C0.99 14 1.98 14 3 14 C-1.23301504 29.70671372 -13.13264176 41.88309919 -27 50 C-30.87472064 51.72468768 -33.72793928 52.63626436 -38 52 C-40.69814231 49.86988765 -41.79213591 48.19840011 -42.3828125 44.79296875 C-42.97513993 32.25537153 -35.89578379 22.85473657 -28.0546875 13.73828125 C-20.7268186 5.95056633 -11.0390549 -0.83313622 0 0 Z " fill="#0F9E8D" transform="translate(390,401)"/>
<path d="M0 0 C0.66 0.33 1.32 0.66 2 1 C0.37638063 4.60804304 -1.84457546 7.57233299 -4.1875 10.75 C-11.73700734 21.31379633 -18.65774045 34.84519094 -18 48 C-17.67 48.66 -17.34 49.32 -17 50 C-7.94253726 49.58829715 0.19793443 44.74313595 7 39 C7.99 39.495 7.99 39.495 9 40 C6.7330379 44.62362415 3.66211508 46.94038342 -0.625 49.5625 C-1.24874512 49.95308594 -1.87249023 50.34367187 -2.51513672 50.74609375 C-10.84135059 55.87124063 -18.96254147 60.03188826 -29 59 C-34.08772075 57.38888843 -37.49310478 55.81323883 -40 51 C-41.38890937 43.52404432 -39.76057305 38.41893295 -35.60546875 32.19140625 C-34.0850329 30.11606681 -32.55480261 28.04972477 -31 26 C-32.15628906 27.0828125 -32.15628906 27.0828125 -33.3359375 28.1875 C-34.34871795 29.12525968 -35.36175196 30.06274557 -36.375 31 C-36.88289063 31.47695313 -37.39078125 31.95390625 -37.9140625 32.4453125 C-41.7734375 36 -41.7734375 36 -44 36 C-43.42896382 32.4163914 -42.19258259 30.88041019 -39.53515625 28.4609375 C-38.82238525 27.80270996 -38.10961426 27.14448242 -37.37524414 26.46630859 C-36.61203857 25.77617676 -35.84883301 25.08604492 -35.0625 24.375 C-33.49862442 22.93899663 -31.93611823 21.50150047 -30.375 20.0625 C-29.61832031 19.36640625 -28.86164063 18.6703125 -28.08203125 17.953125 C-25.477749 15.51008349 -23.02333077 12.96202722 -20.5625 10.375 C-15.11408872 4.88017977 -8.27704522 -1.44848291 0 0 Z " fill="#FAFDFC" transform="translate(345,248)"/>
<path d="M0 0 C2.4375 1.5 2.4375 1.5 4 3 C3.49558068 13.08838638 -5.96376442 20.30875465 -12.67504883 26.99072266 C-14.17620038 28.48872409 -15.66352969 29.99954849 -17.15039062 31.51171875 C-36.05568728 50.54463523 -36.05568728 50.54463523 -46.8125 51.25 C-50 51 -50 51 -51 50 C-52.16833535 40.84803973 -46.85144194 33.95973241 -41.625 26.875 C-40.09519389 24.90738753 -38.55432424 22.94830226 -37 21 C-36.4225 20.25492187 -35.845 19.50984375 -35.25 18.7421875 C-27.43974553 9.16711591 -13.14751712 -2.19125285 0 0 Z " fill="#13A791" transform="translate(496,250)"/>
<path d="M0 0 C1.0625 1.875 1.0625 1.875 1.125 4.5625 C-1.75685208 13.54709766 -9.98523781 20.32120923 -16.5 26.8125 C-17.22991653 27.54309631 -17.22991653 27.54309631 -17.97457886 28.28845215 C-37.86454899 48.12402781 -37.86454899 48.12402781 -48.625 49.125 C-50.9375 48.875 -50.9375 48.875 -52.9375 46.875 C-52.9375 33.74761976 -41.26719031 21.47716042 -32.578125 12.4140625 C-25.31804665 5.69462828 -10.49749162 -6.09531771 0 0 Z " fill="#15AB93" transform="translate(551.9375,402.125)"/>
<path d="M0 0 C2.9375 1.3125 2.9375 1.3125 5 3 C5.598125 3.4125 6.19625 3.825 6.8125 4.25 C8.86481189 7.27445962 8.45519176 9.41536491 8 13 C4.54523301 22.56586595 -0.86999695 28.57238302 -9.8125 33.25 C-20.53606795 38.2136317 -29.23602199 39.42350321 -41 39 C-38.52831057 36.52831057 -37.02269382 36.44559086 -33.625 35.75 C-23.80939148 33.41126295 -14.59385411 29.56264872 -8.6875 21.125 C-7.67749338 18.00316136 -7.75916553 15.2512653 -8 12 C-10.3265812 9.6734188 -10.88971833 9.65762749 -14.0625 9.5625 C-22.13565557 9.7442109 -28.21873873 14.8116886 -34 20 C-34.66 19.67 -35.32 19.34 -36 19 C-33.66666667 16.66666667 -31.33333333 14.33333333 -29 12 C-28.23429687 11.175 -27.46859375 10.35 -26.6796875 9.5 C-19.74896337 3.0340183 -9.60949219 -2.02785862 0 0 Z " fill="#F7FCFB" transform="translate(478,391)"/>
<path d="M0 0 C0.76441406 -0.01675781 1.52882813 -0.03351563 2.31640625 -0.05078125 C4.97839656 0.40513974 5.84119786 1.16248056 7.4375 3.3125 C8.05998431 7.93666918 7.55352857 11.54726183 5.03125 15.546875 C1.54414346 19.41004205 -3.05548847 21.81292177 -7.5625 24.3125 C-8.655625 24.93125 -9.74875 25.55 -10.875 26.1875 C-16.59742042 27.93332318 -22.58106343 28.65816091 -28.5625 28.3125 C-30.546875 27.0703125 -30.546875 27.0703125 -31.5625 25.3125 C-31.1177615 22.17701389 -30.14690852 20.51397823 -27.9375 18.2890625 C-27.39988037 17.74548096 -26.86226074 17.20189941 -26.30834961 16.6418457 C-25.73221924 16.07941162 -25.15608887 15.51697754 -24.5625 14.9375 C-23.97670166 14.35895264 -23.39090332 13.78040527 -22.78735352 13.18432617 C-18.41191902 8.94665347 -13.91404039 5.26848432 -8.5625 2.3125 C-7.91539062 1.94125 -7.26828125 1.57 -6.6015625 1.1875 C-4.27026415 0.18709611 -2.52965163 0.01284087 0 0 Z " fill="#13A691" transform="translate(463.5625,399.6875)"/>
<path d="M0 0 C2 2 2 2 2.15234375 3.98828125 C1.75329076 8.30530902 1.42427751 10.47523571 -1.375 13.9375 C-5.92762485 17.51456238 -8.17626921 18.42354406 -14 18 C-16 16 -16 16 -16.5625 12.375 C-16.48213588 7.4906472 -13.97436405 4.98127578 -10.7265625 1.56640625 C-7.12957034 -1.69692826 -4.62098987 -0.90769444 0 0 Z " fill="#F7FCFB" transform="translate(364,222)"/>
<path d="M0 0 C0 4 0 4 -1.29296875 5.53515625 C-2.23076172 6.29119141 -2.23076172 6.29119141 -3.1875 7.0625 C-3.90679688 7.65417969 -4.62609375 8.24585938 -5.3671875 8.85546875 C-6.23601563 9.56316406 -7.10484375 10.27085937 -8 11 C-9.10945843 11.95130159 -10.21605694 12.90594516 -11.3203125 13.86328125 C-12.48424718 14.86733569 -13.64830978 15.87124186 -14.8125 16.875 C-15.65687622 17.60795288 -15.65687622 17.60795288 -16.51831055 18.35571289 C-19.00646392 20.47704948 -20.86607608 21.95535869 -24 23 C-21.43448682 17.22759535 -17.46989686 13.36602138 -12.5625 9.5 C-9.62070201 7.1760205 -6.90262964 4.90053415 -4.27734375 2.21875 C-2 0 -2 0 0 0 Z " fill="#EAF8F5" transform="translate(623,275)"/>
<path d="M0 0 C0.66 0.33 1.32 0.66 2 1 C1.30132812 1.67546875 0.60265625 2.3509375 -0.1171875 3.046875 C-1.02726562 3.93890625 -1.93734375 4.8309375 -2.875 5.75 C-3.77992188 6.63171875 -4.68484375 7.5134375 -5.6171875 8.421875 C-7.99379413 10.73985273 -7.99379413 10.73985273 -8.9453125 12.96875 C-10.61523103 16.18488939 -13.3391995 18.35904483 -16 20.75 C-16.5465625 21.25660156 -17.093125 21.76320313 -17.65625 22.28515625 C-21.74157682 26 -21.74157682 26 -24 26 C-23.47055354 22.03797562 -21.75010231 20.58355372 -18.75 18.0625 C-14.27546024 14.18456554 -10.04488351 10.14123369 -5.875 5.9375 C-5.29459961 5.35299072 -4.71419922 4.76848145 -4.11621094 4.16625977 C-2.7420888 2.77953669 -1.37073494 1.39007132 0 0 Z " fill="#E8F5F4" transform="translate(258,402)"/>
<path d="M0 0 C0.66 0.33 1.32 0.66 2 1 C0.61105801 4.21982006 -0.94246936 6.07349534 -3.625 8.3125 C-5.85792818 10.18750891 -8.06256972 12.05812427 -10.19921875 14.04296875 C-11.24529297 15.01169922 -11.24529297 15.01169922 -12.3125 16 C-13.26576172 16.8971875 -13.26576172 16.8971875 -14.23828125 17.8125 C-14.81964844 18.204375 -15.40101563 18.59625 -16 19 C-16.99 18.67 -17.98 18.34 -19 18 C-14.67329187 12.50391129 -9.8667744 8.26447531 -4.390625 3.91796875 C-1.99350905 2.0662068 -1.99350905 2.0662068 0 0 Z " fill="#E5F6F3" transform="translate(595,419)"/>
<path d="M0 0 C0.66 0.33 1.32 0.66 2 1 C1.27683594 1.68835938 1.27683594 1.68835938 0.5390625 2.390625 C-0.09257812 3.00421875 -0.72421875 3.6178125 -1.375 4.25 C-2.00148438 4.85328125 -2.62796875 5.4565625 -3.2734375 6.078125 C-5.06199342 7.89439311 -5.06199342 7.89439311 -6 10.03125 C-7.19471961 12.38335424 -8.58869869 13.59079152 -10.625 15.25 C-11.25664062 15.77078125 -11.88828125 16.2915625 -12.5390625 16.828125 C-13.02117187 17.21484375 -13.50328125 17.6015625 -14 18 C-14 14 -14 14 -12.0625 11.8125 C-11.04202658 10.87460824 -10.02111772 9.93719024 -9 9 C-7.39045929 7.40122544 -5.78661421 5.79670326 -4.1875 4.1875 C-2.09375 2.09375 -2.09375 2.09375 0 0 Z " fill="#E8F6F4" transform="translate(448,402)"/>
<path d="M0 0 C0.66 0.33 1.32 0.66 2 1 C-1.50786057 5.18291278 -5.08135631 9.19020752 -9 13 C-9.66 13.66 -10.32 14.32 -11 15 C-11.99 14.67 -12.98 14.34 -14 14 C-9.72706118 8.76564995 -5.18419194 4.32893185 0 0 Z " fill="#E5F6F3" transform="translate(536,274)"/>
<path d="M0 0 C0.66 0.33 1.32 0.66 2 1 C-0.52371342 6.55216953 -5.20847864 9.514344 -10 13 C-10 8.97698923 -8.67577112 7.95743123 -6 5 C-4.05056443 3.25501743 -2.04941287 1.63021478 0 0 Z " fill="#E9F6F4" transform="translate(362,279)"/>
<path d="M0 0 C0.66 0.33 1.32 0.66 2 1 C1.4375 2.8125 1.4375 2.8125 0 5 C-3.50990464 6.78686054 -6.04124604 8 -10 8 C-8.7820245 4.34607349 -7.85603494 4.04168301 -4.5625 2.25 C-3.75941406 1.80140625 -2.95632813 1.3528125 -2.12890625 0.890625 C-1.07509766 0.44976562 -1.07509766 0.44976562 0 0 Z " fill="#EAF7F5" transform="translate(474,380)"/>
<path d="M0 0 C0.99 0.33 1.98 0.66 3 1 C2.36191406 1.62648437 1.72382813 2.25296875 1.06640625 2.8984375 C0.24011719 3.71570313 -0.58617187 4.53296875 -1.4375 5.375 C-2.26121094 6.18710938 -3.08492187 6.99921875 -3.93359375 7.8359375 C-6.03434672 9.82348515 -6.03434672 9.82348515 -7 12 C-7.66 11.67 -8.32 11.34 -9 11 C-6.03 7.37 -3.06 3.74 0 0 Z " fill="#1F9892" transform="translate(151,243)"/>
<path d="M0 0 C0.721875 0.391875 1.44375 0.78375 2.1875 1.1875 C2.1875 1.5175 2.1875 1.8475 2.1875 2.1875 C-1.1125 2.8475 -4.4125 3.5075 -7.8125 4.1875 C-7.8125 3.5275 -7.8125 2.8675 -7.8125 2.1875 C-4.86429158 -0.17106674 -3.72198415 -1.07523986 0 0 Z " fill="#D6EFEB" transform="translate(419.8125,193.8125)"/>
<path d="M0 0 C0.66 0 1.32 0 2 0 C2.66 2.64 3.32 5.28 4 8 C3.01 7.67 2.02 7.34 1 7 C0.67 4.69 0.34 2.38 0 0 Z " fill="#DDEFEE" transform="translate(85,476)"/>
<path d="M0 0 C0.99 0.33 1.98 0.66 3 1 C0.69 3.64 -1.62 6.28 -4 9 C-4 5.00095031 -2.27413033 3.19799578 0 0 Z " fill="#41B6A6" transform="translate(440,407)"/>
</svg>
